<?xml version="1.0" standalone="no"?>
<!DOCTYPE svg PUBLIC "-//W3C//DTD SVG 20010904//EN"
 "http://www.w3.org/TR/2001/REC-SVG-20010904/DTD/svg10.dtd">
<svg version="1.0"
    xmlns="http://www.w3.org/2000/svg" width="1000.000000pt" height="929.000000pt" viewBox="0 0 1000.000000 929.000000" preserveAspectRatio="xMidYMid meet">

    <g transform="translate(0.000000,929.000000) scale(0.100000,-0.100000)" fill="#ffffff" stroke="#ffffff">
        <path d="M220 9126 c0 -2 255 -345 568 -763 1905 -2546 3137 -4194 3140 -4201
1 -5 -37 -51 -85 -103 -124 -133 -974 -1052 -1583 -1709 -937 -1012 -1473
-1591 -1768 -1910 -161 -173 -292 -318 -292 -322 0 -5 188 -8 418 -7 l417 1
135 147 c74 80 385 416 690 746 305 330 697 753 870 940 350 378 1405 1518
1512 1634 38 40 70 72 72 70 2 -2 86 -114 187 -249 100 -135 691 -924 1312
-1754 621 -830 1131 -1515 1134 -1523 4 -11 254 -13 1440 -13 826 0 1433 4
1431 9 -3 8 -405 546 -1763 2361 -1674 2237 -2150 2876 -2149 2886 1 6 226
254 500 550 275 296 616 665 759 819 143 155 697 753 1230 1329 534 576 972
1051 973 1057 2 5 -159 9 -415 9 l-418 -1 -251 -272 c-138 -150 -428 -463
-644 -697 -523 -564 -1444 -1560 -1750 -1890 -135 -145 -272 -295 -305 -331
-33 -37 -62 -67 -65 -67 -3 0 -195 255 -428 566 -232 312 -779 1044 -1215
1627 l-793 1060 -1432 3 c-788 1 -1432 0 -1432 -2z m3271 -1584 c394 -526
1514 -2023 2490 -3327 975 -1303 1958 -2619 2185 -2922 l413 -553 -657 0 -657
1 -1750 2341 c-962 1287 -1951 2609 -2196 2937 -246 328 -764 1020 -1152 1539
l-705 942 657 0 656 0 716 -958z"/>
    </g>
</svg>
